# Blender v2.74 (sub 0) OBJ File: ''
# www.blender.org
mtllib mcylinder.mtl
o Merged_Meshes
v 0.000000 0.500000 0.500000
v 0.129400 0.500000 0.483000
v 0.250000 0.500000 0.433000
v 0.353600 0.500000 0.353600
v 0.433000 0.500000 0.250000
v 0.483000 0.500000 0.129400
v 0.500000 0.500000 0.000000
v 0.483000 0.500000 -0.129400
v 0.433000 0.500000 -0.250000
v 0.353600 0.500000 -0.353600
v 0.250000 0.500000 -0.433000
v 0.129400 0.500000 -0.483000
v 0.000000 0.500000 -0.500000
v -0.129400 0.500000 -0.483000
v -0.250000 0.500000 -0.433000
v -0.353600 0.500000 -0.353600
v -0.433000 0.500000 -0.250000
v -0.483000 0.500000 -0.129400
v -0.500000 0.500000 0.000000
v -0.483000 0.500000 0.129400
v -0.433000 0.500000 0.250000
v -0.353600 0.500000 0.353600
v -0.250000 0.500000 0.433000
v -0.129400 0.500000 0.483000
v 0.000000 -0.500000 0.500000
v 0.129400 -0.500000 0.483000
v 0.250000 -0.500000 0.433000
v 0.353600 -0.500000 0.353600
v 0.433000 -0.500000 0.250000
v 0.483000 -0.500000 0.129400
v 0.500000 -0.500000 0.000000
v 0.483000 -0.500000 -0.129400
v 0.433000 -0.500000 -0.250000
v 0.353600 -0.500000 -0.353600
v 0.250000 -0.500000 -0.433000
v 0.129400 -0.500000 -0.483000
v 0.000000 -0.500000 -0.500000
v -0.129400 -0.500000 -0.483000
v -0.250000 -0.500000 -0.433000
v -0.353600 -0.500000 -0.353600
v -0.433000 -0.500000 -0.250000
v -0.483000 -0.500000 -0.129400
v -0.500000 -0.500000 0.000000
v -0.483000 -0.500000 0.129400
v -0.433000 -0.500000 0.250000
v -0.353600 -0.500000 0.353600
v -0.250000 -0.500000 0.433000
v -0.129400 -0.500000 0.483000
v 0.000000 0.500000 0.500000
v 0.129400 0.500000 0.483000
v 0.250000 0.500000 0.433000
v 0.353600 0.500000 0.353600
v 0.433000 0.500000 0.250000
v 0.483000 0.500000 0.129400
v 0.500000 0.500000 0.000000
v 0.483000 0.500000 -0.129400
v 0.433000 0.500000 -0.250000
v 0.353600 0.500000 -0.353600
v 0.250000 0.500000 -0.433000
v 0.129400 0.500000 -0.483000
v 0.000000 0.500000 -0.500000
v -0.129400 0.500000 -0.483000
v -0.250000 0.500000 -0.433000
v -0.353600 0.500000 -0.353600
v -0.433000 0.500000 -0.250000
v -0.483000 0.500000 -0.129400
v -0.500000 0.500000 0.000000
v -0.483000 0.500000 0.129400
v -0.433000 0.500000 0.250000
v -0.353600 0.500000 0.353600
v -0.250000 0.500000 0.433000
v -0.129400 0.500000 0.483000
v 0.000000 -0.500000 0.500000
v 0.129400 -0.500000 0.483000
v 0.250000 -0.500000 0.433000
v 0.353600 -0.500000 0.353600
v 0.433000 -0.500000 0.250000
v 0.483000 -0.500000 0.129400
v 0.500000 -0.500000 0.000000
v 0.483000 -0.500000 -0.129400
v 0.433000 -0.500000 -0.250000
v 0.353600 -0.500000 -0.353600
v 0.250000 -0.500000 -0.433000
v 0.129400 -0.500000 -0.483000
v 0.000000 -0.500000 -0.500000
v -0.129400 -0.500000 -0.483000
v -0.250000 -0.500000 -0.433000
v -0.353600 -0.500000 -0.353600
v -0.433000 -0.500000 -0.250000
v -0.483000 -0.500000 -0.129400
v -0.500000 -0.500000 0.000000
v -0.483000 -0.500000 0.129400
v -0.433000 -0.500000 0.250000
v -0.353600 -0.500000 0.353600
v -0.250000 -0.500000 0.433000
v -0.129400 -0.500000 0.483000
vt 0.041667 1.000000
vt 0.041667 0.000000
vt 0.000000 0.000000
vt 0.000000 1.000000
vt 0.083333 1.000000
vt 0.083333 0.000000
vt 0.125000 1.000000
vt 0.125000 0.000000
vt 0.166667 1.000000
vt 0.166667 0.000000
vt 0.208333 1.000000
vt 0.208333 0.000000
vt 0.250000 1.000000
vt 0.250000 0.000000
vt 0.291667 1.000000
vt 0.291667 0.000000
vt 0.333333 1.000000
vt 0.333333 0.000000
vt 0.375000 1.000000
vt 0.375000 0.000000
vt 0.416667 1.000000
vt 0.416667 0.000000
vt 0.458333 1.000000
vt 0.458333 0.000000
vt 0.500000 1.000000
vt 0.500000 0.000000
vt 0.541667 1.000000
vt 0.541667 0.000000
vt 0.583333 1.000000
vt 0.583333 0.000000
vt 0.625000 1.000000
vt 0.625000 0.000000
vt 0.666667 1.000000
vt 0.666667 0.000000
vt 0.708333 1.000000
vt 0.708333 0.000000
vt 0.750000 1.000000
vt 0.750000 0.000000
vt 0.791667 1.000000
vt 0.791667 0.000000
vt 0.833333 1.000000
vt 0.833333 0.000000
vt 0.875000 1.000000
vt 0.875000 0.000000
vt 0.916667 1.000000
vt 0.916667 0.000000
vt 0.958333 1.000000
vt 0.958333 0.000000
vt 1.000000 1.000000
vt 1.000000 0.000000
vn -0.258800 0.000000 -0.965900
vn 0.000000 0.000000 -1.000000
vn -0.499900 0.000000 -0.866100
vn -0.707100 0.000000 -0.707100
vn -0.866100 0.000000 -0.499900
vn -0.965900 0.000000 -0.258800
vn -1.000000 0.000000 0.000000
vn -0.965900 0.000000 0.258800
vn -0.866100 0.000000 0.499900
vn -0.707100 0.000000 0.707100
vn -0.499900 0.000000 0.866100
vn -0.258800 0.000000 0.965900
vn 0.000000 0.000000 1.000000
vn 0.258800 0.000000 0.965900
vn 0.499900 0.000000 0.866100
vn 0.707100 0.000000 0.707100
vn 0.866100 0.000000 0.499900
vn 0.965900 0.000000 0.258800
vn 1.000000 0.000000 0.000000
vn 0.965900 0.000000 -0.258800
vn 0.866100 0.000000 -0.499900
vn 0.707100 0.000000 -0.707100
vn 0.499900 0.000000 -0.866100
vn 0.258800 0.000000 -0.965900
usemtl m4
s 1
f 2/1/1 26/2/1 25/3/2 1/4/2
f 3/5/3 27/6/3 26/2/1 2/1/1
f 4/7/4 28/8/4 27/6/3 3/5/3
f 5/9/5 29/10/5 28/8/4 4/7/4
f 6/11/6 30/12/6 29/10/5 5/9/5
f 7/13/7 31/14/7 30/12/6 6/11/6
f 8/15/8 32/16/8 31/14/7 7/13/7
f 9/17/9 33/18/9 32/16/8 8/15/8
f 10/19/10 34/20/10 33/18/9 9/17/9
f 11/21/11 35/22/11 34/20/10 10/19/10
f 12/23/12 36/24/12 35/22/11 11/21/11
f 13/25/13 37/26/13 36/24/12 12/23/12
f 14/27/14 38/28/14 37/26/13 13/25/13
f 15/29/15 39/30/15 38/28/14 14/27/14
f 16/31/16 40/32/16 39/30/15 15/29/15
f 17/33/17 41/34/17 40/32/16 16/31/16
f 18/35/18 42/36/18 41/34/17 17/33/17
f 19/37/19 43/38/19 42/36/18 18/35/18
f 20/39/20 44/40/20 43/38/19 19/37/19
f 21/41/21 45/42/21 44/40/20 20/39/20
f 22/43/22 46/44/22 45/42/21 21/41/21
f 23/45/23 47/46/23 46/44/22 22/43/22
f 24/47/24 48/48/24 47/46/23 23/45/23
f 1/49/2 25/50/2 48/48/24 24/47/24
f 49/4/13 73/3/13 74/2/14 50/1/14
f 50/1/14 74/2/14 75/6/15 51/5/15
f 51/5/15 75/6/15 76/8/16 52/7/16
f 52/7/16 76/8/16 77/10/17 53/9/17
f 53/9/17 77/10/17 78/12/18 54/11/18
f 54/11/18 78/12/18 79/14/19 55/13/19
f 55/13/19 79/14/19 80/16/20 56/15/20
f 56/15/20 80/16/20 81/18/21 57/17/21
f 57/17/21 81/18/21 82/20/22 58/19/22
f 58/19/22 82/20/22 83/22/23 59/21/23
f 59/21/23 83/22/23 84/24/24 60/23/24
f 60/23/24 84/24/24 85/26/2 61/25/2
f 61/25/2 85/26/2 86/28/1 62/27/1
f 62/27/1 86/28/1 87/30/3 63/29/3
f 63/29/3 87/30/3 88/32/4 64/31/4
f 64/31/4 88/32/4 89/34/5 65/33/5
f 65/33/5 89/34/5 90/36/6 66/35/6
f 66/35/6 90/36/6 91/38/7 67/37/7
f 67/37/7 91/38/7 92/40/8 68/39/8
f 68/39/8 92/40/8 93/42/9 69/41/9
f 69/41/9 93/42/9 94/44/10 70/43/10
f 70/43/10 94/44/10 95/46/11 71/45/11
f 71/45/11 95/46/11 96/48/12 72/47/12
f 72/47/12 96/48/12 73/50/13 49/49/13
